<?xml version="1.0" standalone="no"?>
<!DOCTYPE svg PUBLIC "-//W3C//DTD SVG 20010904//EN"
 "http://www.w3.org/TR/2001/REC-SVG-20010904/DTD/svg10.dtd">
<svg version="1.0" xmlns="http://www.w3.org/2000/svg"
 width="1280.000000pt" height="1034.000000pt" viewBox="0 0 1280.000000 1034.000000"
 preserveAspectRatio="xMidYMid meet">
<metadata>
Created by potrace 1.15, written by Peter Selinger 2001-2017
</metadata>
<g transform="translate(0.000000,1034.000000) scale(0.100000,-0.100000)"
fill="#000000" stroke="none">
<path d="M2674 10327 c-3 -8 -4 -87 -2 -176 3 -138 1 -161 -12 -161 -24 0
-104 45 -243 136 -70 46 -132 84 -138 84 -19 0 -85 -38 -136 -79 -37 -29 -60
-59 -83 -105 -32 -64 -33 -68 -28 -168 4 -81 12 -124 38 -202 19 -55 41 -107
49 -115 9 -9 202 -128 429 -264 226 -137 412 -251 412 -253 0 -3 -6 -2 -12 3
-66 40 -763 421 -766 418 -9 -9 205 -387 335 -592 l83 -131 468 -317 c257
-175 472 -322 477 -327 6 -6 -158 74 -362 176 -205 102 -373 184 -373 181 0
-16 347 -450 541 -676 638 -744 1321 -1392 1815 -1721 55 -37 101 -73 101 -80
0 -7 77 -159 172 -338 152 -288 881 -1731 881 -1743 0 -3 -10 -7 -22 -10 -19
-5 -1448 -276 -2458 -467 -258 -49 -744 -141 -1480 -280 -316 -60 -696 -132
-845 -160 -148 -28 -362 -68 -475 -90 -113 -21 -387 -73 -610 -115 -241 -46
-411 -83 -420 -91 -13 -12 -12 -16 5 -33 11 -10 810 -511 1775 -1112 1237
-771 1762 -1093 1780 -1091 14 1 363 78 775 172 2116 482 2574 585 2583 576 3
-3 -3 -6 -14 -7 -10 0 -37 -6 -59 -13 l-40 -12 55 -30 c67 -37 193 -88 275
-110 75 -20 174 -44 200 -50 11 -2 74 -15 140 -29 134 -27 132 -27 305 -55
207 -34 243 -39 280 -44 196 -27 377 -49 535 -65 223 -24 360 -36 620 -57 l80
-6 -25 28 c-25 28 -25 28 15 -3 142 -109 447 -189 850 -223 156 -13 568 -13
715 0 326 29 576 85 740 164 80 38 164 118 173 165 4 18 7 255 7 525 0 510 -2
537 -41 524 -7 -2 -22 9 -34 26 -52 78 -180 139 -402 194 -79 19 -143 39 -143
43 0 11 -40 1 828 199 436 99 798 182 803 185 15 10 10 34 -9 44 -17 9 -156
60 -1392 511 -344 125 -985 359 -1425 520 -440 161 -1009 368 -1265 462 l-465
169 -350 -66 c-192 -36 -539 -101 -770 -145 -557 -106 -567 -108 -573 -90 -8
22 -606 1215 -717 1430 -199 383 -369 703 -381 714 -16 16 -75 206 -159 511
-245 882 -422 1372 -690 1900 -161 317 -305 549 -516 830 l-104 138 -12 -274
c-13 -323 -19 -385 -21 -233 -1 61 -5 227 -9 369 l-6 259 -70 80 c-203 233
-425 422 -651 551 l-48 28 6 -94 c14 -192 27 -355 32 -384 10 -61 -15 3 -106
271 l-92 272 -41 11 c-122 33 -273 42 -283 18z m6546 -8849 c0 -188 -2 -229
-12 -215 -10 13 -43 21 -123 32 -143 19 -572 62 -695 70 -52 3 -108 8 -125 10
-41 5 -282 20 -325 20 -19 0 -55 -4 -80 -8 -25 -4 -40 -4 -33 -1 11 5 1366
321 1386 323 4 1 7 -103 7 -231z m-1417 -105 c-7 -2 -19 -2 -25 0 -7 3 -2 5
12 5 14 0 19 -2 13 -5z"/>
</g>
</svg>
